<svg xmlns="http://www.w3.org/2000/svg" xmlns:svg="http://www.w3.org/2000/svg" id="svg2" width="750.371" height="578.528" version="1.1" viewBox="0 0 703.472 542.37"><defs id="defs4"><marker id="marker4423" orient="auto" overflow="visible" refX="0" refY="0"><path id="path4425" fill="#000" fill-opacity="1" fill-rule="evenodd" stroke="#000" stroke-opacity="1" stroke-width="1pt" d="M 0,0 5,-5 -12.5,0 5,5 0,0 Z" transform="matrix(-0.8,0,0,-0.8,-10,0)"/></marker><marker id="Arrow1Lend-0" orient="auto" overflow="visible" refX="0" refY="0"><path id="path4174-1" fill="#000" fill-opacity="1" fill-rule="evenodd" stroke="#000" stroke-opacity="1" stroke-width="1pt" d="M 0,0 5,-5 -12.5,0 5,5 0,0 Z" transform="matrix(-0.8,0,0,-0.8,-10,0)"/></marker><marker id="Arrow1Lend-4" orient="auto" overflow="visible" refX="0" refY="0"><path id="path4174-19" fill="#000" fill-opacity="1" fill-rule="evenodd" stroke="#000" stroke-opacity="1" stroke-width="1pt" d="M 0,0 5,-5 -12.5,0 5,5 0,0 Z" transform="matrix(-0.8,0,0,-0.8,-10,0)"/></marker><marker id="Arrow1Lend-5-9" orient="auto" overflow="visible" refX="0" refY="0"><path id="path4174-0-3" fill="#000" fill-opacity="1" fill-rule="evenodd" stroke="#000" stroke-opacity="1" stroke-width="1pt" d="M 0,0 5,-5 -12.5,0 5,5 0,0 Z" transform="matrix(-0.8,0,0,-0.8,-10,0)"/></marker><marker id="Arrow1Lend-5-9-3" orient="auto" overflow="visible" refX="0" refY="0"><path id="path4174-0-3-3" fill="#000" fill-opacity="1" fill-rule="evenodd" stroke="#000" stroke-opacity="1" stroke-width="1pt" d="M 0,0 5,-5 -12.5,0 5,5 0,0 Z" transform="matrix(-0.8,0,0,-0.8,-10,0)"/></marker><marker id="Arrow1Lend-5-9-3-3" orient="auto" overflow="visible" refX="0" refY="0"><path id="path4174-0-3-3-2" fill="#000" fill-opacity="1" fill-rule="evenodd" stroke="#000" stroke-opacity="1" stroke-width="1pt" d="M 0,0 5,-5 -12.5,0 5,5 0,0 Z" transform="matrix(-0.8,0,0,-0.8,-10,0)"/></marker><marker id="Arrow1Lend-5-9-8" orient="auto" overflow="visible" refX="0" refY="0"><path id="path4174-0-3-9" fill="#000" fill-opacity="1" fill-rule="evenodd" stroke="#000" stroke-opacity="1" stroke-width="1pt" d="M 0,0 5,-5 -12.5,0 5,5 0,0 Z" transform="matrix(-0.8,0,0,-0.8,-10,0)"/></marker><marker id="marker5093-1" orient="auto" overflow="visible" refX="0" refY="0"><path id="path5095-9" fill="#000" fill-opacity="1" fill-rule="evenodd" stroke="#000" stroke-opacity="1" stroke-width="1pt" d="M 0,0 5,-5 -12.5,0 5,5 0,0 Z" transform="matrix(-0.8,0,0,-0.8,-10,0)"/></marker><marker id="marker4423-5" orient="auto" overflow="visible" refX="0" refY="0"><path id="path4425-3" fill="#000" fill-opacity="1" fill-rule="evenodd" stroke="#000" stroke-opacity="1" stroke-width="1pt" d="M 0,0 5,-5 -12.5,0 5,5 0,0 Z" transform="matrix(-0.8,0,0,-0.8,-10,0)"/></marker><marker id="marker4423-4" orient="auto" overflow="visible" refX="0" refY="0"><path id="path4425-6" fill="#000" fill-opacity="1" fill-rule="evenodd" stroke="#000" stroke-opacity="1" stroke-width="1pt" d="M 0,0 5,-5 -12.5,0 5,5 0,0 Z" transform="matrix(-0.8,0,0,-0.8,-10,0)"/></marker><marker id="marker4423-4-0" orient="auto" overflow="visible" refX="0" refY="0"><path id="path4425-6-6" fill="#000" fill-opacity="1" fill-rule="evenodd" stroke="#000" stroke-opacity="1" stroke-width="1pt" d="M 0,0 5,-5 -12.5,0 5,5 0,0 Z" transform="matrix(-0.8,0,0,-0.8,-10,0)"/></marker><marker id="Arrow1Lend-5-9-3-7" orient="auto" overflow="visible" refX="0" refY="0"><path id="path4174-0-3-3-3" fill="#000" fill-opacity="1" fill-rule="evenodd" stroke="#000" stroke-opacity="1" stroke-width="1pt" d="M 0,0 5,-5 -12.5,0 5,5 0,0 Z" transform="matrix(-0.8,0,0,-0.8,-10,0)"/></marker><marker id="marker4423-50" orient="auto" overflow="visible" refX="0" refY="0"><path id="path4425-7" fill="#000" fill-opacity="1" fill-rule="evenodd" stroke="#000" stroke-opacity="1" stroke-width="1pt" d="M 0,0 5,-5 -12.5,0 5,5 0,0 Z" transform="matrix(-0.8,0,0,-0.8,-10,0)"/></marker><marker id="Arrow1Lend-5-9-3-7-0" orient="auto" overflow="visible" refX="0" refY="0"><path id="path4174-0-3-3-3-0" fill="#000" fill-opacity="1" fill-rule="evenodd" stroke="#000" stroke-opacity="1" stroke-width="1pt" d="M 0,0 5,-5 -12.5,0 5,5 0,0 Z" transform="matrix(-0.8,0,0,-0.8,-10,0)"/></marker><marker id="Arrow1Lend-5-9-3-7-0-4" orient="auto" overflow="visible" refX="0" refY="0"><path id="path4174-0-3-3-3-0-0" fill="#000" fill-opacity="1" fill-rule="evenodd" stroke="#000" stroke-opacity="1" stroke-width="1pt" d="M 0,0 5,-5 -12.5,0 5,5 0,0 Z" transform="matrix(-0.8,0,0,-0.8,-10,0)"/></marker><marker id="Arrow1Lend-5-9-3-7-0-4-4" orient="auto" overflow="visible" refX="0" refY="0"><path id="path4174-0-3-3-3-0-0-1" fill="#000" fill-opacity="1" fill-rule="evenodd" stroke="#000" stroke-opacity="1" stroke-width="1pt" d="M 0,0 5,-5 -12.5,0 5,5 0,0 Z" transform="matrix(-0.8,0,0,-0.8,-10,0)"/></marker></defs><metadata id="metadata7"/><g id="layer1" transform="translate(-17.049686,-39.793526)"><rect id="rect3338-0" width="120" height="100" x="188.993" y="122.867" fill="none" fill-opacity="1" stroke="#000" stroke-dasharray="none" stroke-dashoffset="0" stroke-linecap="round" stroke-linejoin="round" stroke-miterlimit="4" stroke-opacity="1" stroke-width="3" opacity="1"/><text id="text3357-4" x="248.644" y="167.474" fill="#000" fill-opacity="1" stroke="none" stroke-linecap="butt" stroke-linejoin="miter" stroke-opacity="1" stroke-width="1" font-family="Sans" font-size="22" font-style="normal" font-weight="normal" letter-spacing="0" text-anchor="middle" word-spacing="0" xml:space="preserve" style="line-height:125%;text-align:center"><tspan id="tspan3359-9" x="248.644" y="167.474">Commit</tspan><tspan id="tspan10122" x="248.644" y="194.974">Tx A</tspan></text><path id="path3365-0-6" fill="none" fill-rule="evenodd" stroke="#000" stroke-linecap="butt" stroke-linejoin="miter" stroke-opacity="1" stroke-width="1" marker-end="url(#Arrow1Lend-5-9)" d="m 330.30541,71.85668 -90.38869,-0.71429 -1e-5,50"/><rect id="rect3338-0-3" width="120" height="100" x="411.014" y="124.08" fill="none" fill-opacity="1" stroke="#000" stroke-dasharray="none" stroke-dashoffset="0" stroke-linecap="round" stroke-linejoin="round" stroke-miterlimit="4" stroke-opacity="1" stroke-width="3" opacity="1"/><text id="text3357-4-5" x="470.665" y="168.688" fill="#000" fill-opacity="1" stroke="none" stroke-linecap="butt" stroke-linejoin="miter" stroke-opacity="1" stroke-width="1" font-family="Sans" font-size="22" font-style="normal" font-weight="normal" letter-spacing="0" text-anchor="middle" word-spacing="0" xml:space="preserve" style="line-height:125%;text-align:center"><tspan id="tspan3359-9-5" x="470.665" y="168.688">Commit</tspan><tspan id="tspan10122-5" x="470.665" y="196.188">Tx B</tspan></text><circle id="path13694" cx="359.396" cy="82.748" r="30" fill="none" fill-opacity="1" stroke="#000" stroke-dasharray="none" stroke-dashoffset="0" stroke-linecap="round" stroke-linejoin="round" stroke-miterlimit="4" stroke-opacity="1" stroke-width="3" opacity="1"/><path id="path13702" fill="none" fill-rule="evenodd" stroke="#000" stroke-linecap="butt" stroke-linejoin="miter" stroke-opacity="1" stroke-width="1" d="m 359.39595,52.74789 0,60"/><path id="path13704" fill="none" fill-rule="evenodd" stroke="#000" stroke-linecap="butt" stroke-linejoin="miter" stroke-opacity="1" stroke-width="1" d="m 329.39595,82.74789 60,0"/><path id="path3365-0-6-4" fill="none" fill-rule="evenodd" stroke="#000" stroke-linecap="butt" stroke-linejoin="miter" stroke-opacity="1" stroke-width="1" marker-end="url(#Arrow1Lend-5-9-3)" d="m 330.30541,91.85668 -70.38869,0 -10e-6,29.28571"/><path id="path3365-0-6-44" fill="none" fill-rule="evenodd" stroke="#000" stroke-linecap="butt" stroke-linejoin="miter" stroke-opacity="1" stroke-width="1" marker-end="url(#Arrow1Lend-5-9-8)" d="m 387.76695,71.85668 90.38869,-0.71429 10e-6,50"/><path id="path3365-0-6-4-6" fill="none" fill-rule="evenodd" stroke="#000" stroke-linecap="butt" stroke-linejoin="miter" stroke-opacity="1" stroke-width="1" marker-end="url(#Arrow1Lend-5-9-3-3)" d="m 387.76695,91.85668 70.38869,0 10e-6,29.28571"/><flowRoot id="flowRoot3465" fill="#000" fill-opacity="1" stroke="none" stroke-linecap="butt" stroke-linejoin="miter" stroke-opacity="1" stroke-width="1" font-family="Sans" font-size="15" font-style="normal" font-weight="normal" letter-spacing="0" word-spacing="0" xml:space="preserve" style="line-height:125%"><flowRegion id="flowRegion3467"><rect id="rect3469" width="110" height="25" x="240" y="187.362"/></flowRegion><flowPara id="flowPara3471"/></flowRoot><text id="text3473" x="209.799" y="139.768" fill="#000" fill-opacity="1" stroke="none" stroke-linecap="butt" stroke-linejoin="miter" stroke-opacity="1" stroke-width="1" font-family="Sans" font-size="15" font-style="normal" font-weight="normal" letter-spacing="0" word-spacing="0" xml:space="preserve" style="line-height:125%"><tspan id="tspan3475" x="209.799" y="139.768">SIG A &amp; B</tspan></text><text id="text3473-6" x="432.477" y="141.788" fill="#000" fill-opacity="1" stroke="none" stroke-linecap="butt" stroke-linejoin="miter" stroke-opacity="1" stroke-width="1" font-family="Sans" font-size="15" font-style="normal" font-weight="normal" letter-spacing="0" word-spacing="0" xml:space="preserve" style="line-height:125%"><tspan id="tspan3475-5" x="432.477" y="141.788">SIG A &amp; B</tspan></text><flowRoot id="flowRoot3480" fill="#000" fill-opacity="1" stroke="none" stroke-linecap="butt" stroke-linejoin="miter" stroke-opacity="1" stroke-width="1" font-family="Sans" font-size="15" font-style="normal" font-weight="normal" letter-spacing="0" word-spacing="0" xml:space="preserve" style="line-height:125%"><flowRegion id="flowRegion3482"><rect id="rect3484" width="40" height="60" x="122.95" y="292.569"/></flowRegion><flowPara id="flowPara3486"/></flowRoot><path id="path3365-0-6-4-65" fill="none" fill-rule="evenodd" stroke="#000" stroke-linecap="butt" stroke-linejoin="miter" stroke-opacity="1" stroke-width="1" marker-end="url(#Arrow1Lend-5-9-3-7)" d="m 209.99063,222.86173 0.16099,20.20305 -69.53953,0 -1e-5,29.28571"/><text id="text3514" x="110" y="282.362" fill="#000" fill-opacity="1" stroke="none" stroke-linecap="butt" stroke-linejoin="miter" stroke-opacity="1" stroke-width="1" font-family="Sans" font-size="15" font-style="normal" font-weight="normal" letter-spacing="0" word-spacing="0" xml:space="preserve" style="line-height:125%"><tspan id="tspan3516" x="110" y="282.362">SIG B</tspan></text><path id="path3539" fill="none" fill-rule="evenodd" stroke="#000" stroke-linecap="butt" stroke-linejoin="miter" stroke-opacity="1" stroke-width="1" marker-end="url(#marker4423)" d="m 250,222.36219 0,70"/><text id="text3514-9" x="227.122" y="310.342" fill="#000" fill-opacity="1" stroke="none" stroke-linecap="butt" stroke-linejoin="miter" stroke-opacity="1" stroke-width="1" font-family="Sans" font-size="15" font-style="normal" font-weight="normal" letter-spacing="0" text-anchor="middle" word-spacing="0" xml:space="preserve" style="line-height:125%;text-align:center"><tspan id="tspan3516-2" x="227.122" y="310.342">REVOCATION-A &amp; SIG B</tspan><tspan id="tspan4443" x="227.122" y="329.092" font-weight="bold">OR</tspan><tspan id="tspan4445" x="227.122" y="347.842">OP_CSV &amp; SIG A</tspan></text><path id="path3365-0-6-4-65-1" fill="none" fill-rule="evenodd" stroke="#000" stroke-linecap="butt" stroke-linejoin="miter" stroke-opacity="1" stroke-width="1" marker-end="url(#Arrow1Lend-5-9-3-7-0)" d="m 521.01751,222.86173 -0.16099,20.20305 69.53953,0 1e-5,29.28571"/><text id="text3514-1" x="569.503" y="288.423" fill="#000" fill-opacity="1" stroke="none" stroke-linecap="butt" stroke-linejoin="miter" stroke-opacity="1" stroke-width="1" font-family="Sans" font-size="15" font-style="normal" font-weight="normal" letter-spacing="0" word-spacing="0" xml:space="preserve" style="line-height:125%"><tspan id="tspan3516-9" x="569.503" y="288.423">SIG A</tspan></text><path id="path3539-3" fill="none" fill-rule="evenodd" stroke="#000" stroke-linecap="butt" stroke-linejoin="miter" stroke-opacity="1" stroke-width="1" marker-end="url(#marker4423-50)" d="m 469.08628,226.4028 0,70.00001"/><text id="text3514-9-2" x="518.94" y="315.393" fill="#000" fill-opacity="1" stroke="none" stroke-linecap="butt" stroke-linejoin="miter" stroke-opacity="1" stroke-width="1" font-family="Sans" font-size="15" font-style="normal" font-weight="normal" letter-spacing="0" text-anchor="middle" word-spacing="0" xml:space="preserve" style="line-height:125%;text-align:center"><tspan id="tspan3516-2-9" x="518.94" y="315.393">REVOCATION-B &amp; SIG A</tspan><tspan id="tspan4443-9" x="518.94" y="334.143" font-weight="bold">OR</tspan><tspan id="tspan4445-8" x="518.94" y="352.893">OP_CSV &amp; SIG B</tspan></text><path id="path3365-0-6-4-65-1-2" fill="none" fill-rule="evenodd" stroke="#000" stroke-linecap="butt" stroke-linejoin="miter" stroke-opacity="1" stroke-width="1" marker-end="url(#Arrow1Lend-5-9-3-7-0-4)" d="m 280.21041,224.98356 -0.16099,20.20305 38.2248,0 10e-6,154.54462"/><text id="text7529" x="259.669" y="418.829" fill="#000" fill-opacity="1" stroke="none" stroke-linecap="butt" stroke-linejoin="miter" stroke-opacity="1" stroke-width="1" font-family="Sans" font-size="15" font-style="normal" font-weight="normal" letter-spacing="0" text-anchor="middle" word-spacing="0" xml:space="preserve" style="line-height:125%;text-align:center"><tspan id="tspan7531" x="259.669" y="418.829">R-VALUE &amp; SIG-PAYEE</tspan><tspan id="tspan7533" x="259.669" y="437.579" font-weight="bold">OR</tspan><tspan id="tspan7535" x="259.669" y="456.329">HTLC-TIMEOUT &amp; SIG-PAYER</tspan><tspan id="tspan7537" x="259.669" y="475.079" font-weight="bold">OR</tspan><tspan id="tspan7539" x="259.669" y="493.829">REVOCATION-A &amp; SIG B</tspan></text><path id="path3365-0-6-4-65-1-2-8" fill="none" fill-rule="evenodd" stroke="#000" stroke-linecap="butt" stroke-linejoin="miter" stroke-opacity="1" stroke-width="1" marker-end="url(#Arrow1Lend-5-9-3-7-0-4-4)" d="m 448.68611,224.37951 0.16099,20.20305 -38.2248,0 -10e-6,154.54462"/><text id="text7529-2" x="497.852" y="416.814" fill="#000" fill-opacity="1" stroke="none" stroke-linecap="butt" stroke-linejoin="miter" stroke-opacity="1" stroke-width="1" font-family="Sans" font-size="15" font-style="normal" font-weight="normal" letter-spacing="0" text-anchor="middle" word-spacing="0" xml:space="preserve" style="line-height:125%;text-align:center"><tspan id="tspan7531-6" x="497.852" y="416.814">R-VALUE &amp; SIG-PAYEE</tspan><tspan id="tspan7533-4" x="497.852" y="435.564" font-weight="bold">OR</tspan><tspan id="tspan7535-9" x="497.852" y="454.314">HTLC-TIMEOUT &amp; SIG-PAYER</tspan><tspan id="tspan7537-1" x="497.852" y="473.064" font-weight="bold">OR</tspan><tspan id="tspan7539-2" x="497.852" y="491.814">REVOCATION-B &amp; SIG A</tspan></text></g></svg>